<?xml version="1.0" standalone="no"?>
<!DOCTYPE svg PUBLIC "-//W3C//DTD SVG 20010904//EN"
 "http://www.w3.org/TR/2001/REC-SVG-20010904/DTD/svg10.dtd">
<svg version="1.0" xmlns="http://www.w3.org/2000/svg"
 width="16.000000pt" height="16.000000pt" viewBox="0 0 16.000000 16.000000"
 preserveAspectRatio="xMidYMid meet">
<metadata>
Created by potrace 1.11, written by Peter Selinger 2001-2013
</metadata>
<g transform="translate(0.000000,16.000000) scale(0.002286,-0.002286)"
fill="#000000" stroke="none">
<path d="M3453 6913 c26 -2 68 -2 95 0 26 2 4 3 -48 3 -52 0 -74 -1 -47 -3z"/>
<path d="M3238 6903 c7 -3 16 -2 19 1 4 3 -2 6 -13 5 -11 0 -14 -3 -6 -6z"/>
<path d="M3748 6903 c7 -3 16 -2 19 1 4 3 -2 6 -13 5 -11 0 -14 -3 -6 -6z"/>
<path d="M3235 6569 c-517 -46 -1030 -228 -1455 -516 -183 -125 -298 -221
-455 -378 -344 -344 -582 -726 -740 -1187 -310 -904 -174 -1919 362 -2708 125
-183 221 -298 378 -455 344 -344 726 -582 1187 -740 904 -310 1919 -174 2708
362 183 125 298 221 455 378 344 344 582 726 740 1187 310 904 174 1919 -362
2708 -125 183 -221 298 -378 455 -157 157 -272 253 -455 378 -574 390 -1291
576 -1985 516z m-150 -1332 c314 -511 575 -930 579 -931 4 0 202 412 439 916
238 505 434 917 437 917 9 0 343 -289 463 -402 432 -403 774 -950 891 -1428
45 -183 58 -286 63 -504 8 -293 -19 -499 -103 -785 -83 -286 -258 -652 -432
-905 -380 -552 -874 -883 -1536 -1031 -391 -87 -774 -117 -1407 -112 l-377 3
610 1293 609 1293 -366 597 c-202 328 -370 600 -373 604 -4 4 -274 -592 -601
-1325 -327 -733 -595 -1333 -596 -1334 -1 -3 -607 267 -614 273 -3 3 1658
3732 1697 3809 l15 30 16 -24 c8 -13 272 -442 586 -954z"/>
<path d="M3966 3345 c-434 -922 -786 -1678 -783 -1682 17 -16 387 35 565 78
531 129 898 396 1179 857 185 305 301 612 344 917 16 113 16 355 0 460 -40
263 -148 545 -292 767 -65 99 -205 278 -217 278 -4 0 -362 -754 -796 -1675z"/>
<path d="M1239 6063 c-13 -16 -12 -17 4 -4 9 7 17 15 17 17 0 8 -8 3 -21 -13z"/>
<path d="M5740 6076 c0 -2 8 -10 18 -17 15 -13 16 -12 3 4 -13 16 -21 21 -21
13z"/>
<path d="M1080 5913 l-55 -58 58 55 c53 50 62 60 54 60 -1 0 -27 -26 -57 -57z"/>
<path d="M5910 5915 c30 -30 57 -55 59 -55 3 0 -19 25 -49 55 -30 30 -57 55
-59 55 -3 0 19 -25 49 -55z"/>
<path d="M929 5753 c-13 -16 -12 -17 4 -4 16 13 21 21 13 21 -2 0 -10 -8 -17
-17z"/>
<path d="M6050 5766 c0 -2 8 -10 18 -17 15 -13 16 -12 3 4 -13 16 -21 21 -21
13z"/>
<path d="M91 3754 c0 -11 3 -14 6 -6 3 7 2 16 -1 19 -3 4 -6 -2 -5 -13z"/>
<path d="M6901 3754 c0 -11 3 -14 6 -6 3 7 2 16 -1 19 -3 4 -6 -2 -5 -13z"/>
<path d="M84 3500 c0 -52 1 -74 3 -47 2 26 2 68 0 95 -2 26 -3 4 -3 -48z"/>
<path d="M6914 3500 c0 -52 1 -74 3 -47 2 26 2 68 0 95 -2 26 -3 4 -3 -48z"/>
<path d="M91 3244 c0 -11 3 -14 6 -6 3 7 2 16 -1 19 -3 4 -6 -2 -5 -13z"/>
<path d="M6901 3244 c0 -11 3 -14 6 -6 3 7 2 16 -1 19 -3 4 -6 -2 -5 -13z"/>
<path d="M920 1256 c0 -2 8 -10 18 -17 15 -13 16 -12 3 4 -13 16 -21 21 -21
13z"/>
<path d="M6059 1243 c-13 -16 -12 -17 4 -4 9 7 17 15 17 17 0 8 -8 3 -21 -13z"/>
<path d="M1080 1085 c30 -30 57 -55 59 -55 3 0 -19 25 -49 55 -30 30 -57 55
-59 55 -3 0 19 -25 49 -55z"/>
<path d="M5910 1083 l-55 -58 58 55 c53 50 62 60 54 60 -1 0 -27 -26 -57 -57z"/>
<path d="M1230 946 c0 -2 8 -10 18 -17 15 -13 16 -12 3 4 -13 16 -21 21 -21
13z"/>
<path d="M5749 933 c-13 -16 -12 -17 4 -4 9 7 17 15 17 17 0 8 -8 3 -21 -13z"/>
<path d="M3238 93 c7 -3 16 -2 19 1 4 3 -2 6 -13 5 -11 0 -14 -3 -6 -6z"/>
<path d="M3748 93 c7 -3 16 -2 19 1 4 3 -2 6 -13 5 -11 0 -14 -3 -6 -6z"/>
<path d="M3453 83 c26 -2 68 -2 95 0 26 2 4 3 -48 3 -52 0 -74 -1 -47 -3z"/>
</g>
</svg>
