<svg width="500" height="500" viewBox="0 0 500 500" version="1.1" xmlns="http://www.w3.org/2000/svg" xmlns:xlink="http://www.w3.org/1999/xlink" xmlns:figma="http://www.figma.com/figma/ns">
<title>Ellipse</title>
<desc>Created using Figma</desc>
<g id="Canvas" transform="translate(-6 -6)" figma:type="canvas">
<g id="Ellipse" style="mix-blend-mode:normal;" figma:type="ellipse">
<use xlink:href="#path0_fill" transform="translate(6 6)" fill="#263238" style="mix-blend-mode:normal;"/>
<mask id="mask0_outline_ins">
<use xlink:href="#path0_fill" fill="white" transform="translate(6 6)"/>
</mask>
<g mask="url(#mask0_outline_ins)">
<use xlink:href="#path1_stroke_2x" transform="translate(6 6)" fill="#24C6DC" style="mix-blend-mode:normal;"/>
</g>
</g>
</g>
<defs>
<path id="path0_fill" d="M 500 250C 500 388.071 388.071 500 250 500C 111.929 500 0 388.071 0 250C 0 111.929 111.929 0 250 0C 388.071 0 500 111.929 500 250Z"/>
<path id="path1_stroke_2x" d="M 475 250C 475 374.264 374.264 475 250 475L 250 525C 401.878 525 525 401.878 525 250L 475 250ZM 250 475C 125.736 475 25 374.264 25 250L -25 250C -25 401.878 98.1217 525 250 525L 250 475ZM 25 250C 25 125.736 125.736 25 250 25L 250 -25C 98.1217 -25 -25 98.1217 -25 250L 25 250ZM 250 25C 374.264 25 475 125.736 475 250L 525 250C 525 98.1217 401.878 -25 250 -25L 250 25Z"/>
</defs>
</svg>
